<svg xmlns="http://www.w3.org/2000/svg" viewBox="0 0 89 87.88"><defs><style>.cls-1{fill:#fff;}</style></defs><title>資產 4</title><g id="圖層_2" data-name="圖層 2"><g id="圖層_1-2" data-name="圖層 1"><path class="cls-1" d="M58.15,77.53A21.13,21.13,0,1,1,79.28,56.4,21.15,21.15,0,0,1,58.15,77.53Zm0-37.29A16.16,16.16,0,1,0,74.31,56.4,16.18,16.18,0,0,0,58.15,40.24Z"/><path class="cls-1" d="M58.15,77.92A21.52,21.52,0,1,1,79.67,56.4,21.54,21.54,0,0,1,58.15,77.92Zm0-42.26A20.74,20.74,0,1,0,78.89,56.4,20.76,20.76,0,0,0,58.15,35.66Zm0,37.29A16.55,16.55,0,1,1,74.7,56.4,16.57,16.57,0,0,1,58.15,72.95Zm0-32.32A15.77,15.77,0,1,0,73.92,56.4,15.79,15.79,0,0,0,58.15,40.63Z"/><path class="cls-1" d="M86.13,87.49a2.48,2.48,0,0,1-1.81-.78L69.68,71.12a2.49,2.49,0,1,1,3.62-3.4L87.94,83.3a2.49,2.49,0,0,1-1.81,4.19Z"/><path class="cls-1" d="M86.12,87.88A2.88,2.88,0,0,1,84,87L69.39,71.38a2.87,2.87,0,0,1,.13-4.06,2.88,2.88,0,0,1,4.06.13L88.22,83a2.87,2.87,0,0,1-2.09,4.84ZM71.49,67.32A2.1,2.1,0,0,0,70,70.85L84.6,86.44a2.16,2.16,0,0,0,3,.09,2.1,2.1,0,0,0,.09-3L73,68A2.09,2.09,0,0,0,71.49,67.32Z"/><path class="cls-1" d="M37.17,15.57H20.05a1.95,1.95,0,1,0,0,3.9H37.17a1.95,1.95,0,0,0,0-3.9Z"/><path class="cls-1" d="M39.12,30.75a2,2,0,0,0-1.95-1.95H20.05a1.95,1.95,0,1,0,0,3.9H37.17A2,2,0,0,0,39.12,30.75Z"/><path class="cls-1" d="M29.08,40.56h-9a1.95,1.95,0,1,0,0,3.9h9a1.95,1.95,0,0,0,0-3.9Z"/><path class="cls-1" d="M29.08,53.79h-9a1.95,1.95,0,1,0,0,3.9h9a1.95,1.95,0,1,0,0-3.9Z"/><path class="cls-1" d="M68.26,22.35a6.65,6.65,0,0,0-2-4.23C64.14,16,62,13.89,59.94,11.81c-3.2-3.21-6.5-6.53-9.83-9.71a7.23,7.23,0,0,0-4.31-2C35.93,0,25.88,0,16.16,0H12.79c-3,0-4.67,1.47-5.14,4.58A5.14,5.14,0,0,1,4.94,8,7.4,7.4,0,0,0,0,15.44q0,11.49,0,23C0,49,0,60,0,70.83c0,5.12,2.54,7.64,7.7,7.69,7.84.08,15.81.06,23.52,0h8.09a1.88,1.88,0,1,0,0-3.75h-27c-8.58,0-8.66-.09-8.66-8.83q0-24.4,0-48.79v-.35c0-2,0-4.37,3.81-5l.3-.05V31.42c0,11,0,22.37,0,33.55,0,4,1.2,5.71,4.05,5.82,4.74.18,9.55.14,14.2.1l5.22,0h.55a1.87,1.87,0,0,0-.07-3.75h-7c-2.62,0-5.42-.05-8.23.1-1.94.1-3.08-.15-3.83-.87s-1.09-1.9-1.07-3.82c.14-13.32.12-26.87.09-40q0-7.16,0-14.32V3.89h5.82c8.42,0,16.36,0,24.43.12.8,0,1.83,1.89,1.9,2.87.14,2.08.13,4.2.11,6.25,0,1.1,0,2.2,0,3.3.08,5.5,2.57,8,8.1,8.13,2.41.06,4.88.05,7.33,0h.5c2.08-.06,4.23-.13,4.76,2.24v3a1.88,1.88,0,1,0,3.76,0V22.91a2,2,0,0,0-.08-.52ZM61.13,20.5c-1,0-2,0-3,0s-1.88,0-2.8,0a41.11,41.11,0,0,1-4.3-.19c-1.14-.12-3-1.62-3.13-2.75a60.56,60.56,0,0,1-.17-7.47c0-.9,0-1.79,0-2.65V6.9l14,13.6Z"/></g></g></svg>