<svg xmlns="http://www.w3.org/2000/svg" viewBox="0 0 203.54 150"><defs><style>.cls-1{fill:#0c57c9;}</style></defs><title>skills</title><g id="圖層_2" data-name="圖層 2"><g id="圖層_1-2" data-name="圖層 1"><path class="cls-1" d="M51.4,70.28c.68.54,1.19,1,1.73,1.36Q61,77.2,68.81,82.76c2.15,1.53,2.74,3.46,1.66,5.35s-2.93,2.18-5.07.66Q54.76,81.25,44.15,73.7c-2.84-2-2.85-4.79,0-6.8q10.6-7.57,21.24-15.07c2.15-1.52,4-1.27,5.08.62s.53,3.82-1.62,5.35Q61,63.38,53.15,68.92C52.61,69.31,52.09,69.74,51.4,70.28Z"/><path class="cls-1" d="M119.57,70.26,102.78,58.34c-2.9-2.05-3.61-3.9-2.33-6s3-2,5.78,0q10.12,7.17,20.23,14.35c3.16,2.25,3.15,4.91,0,7.16q-10.36,7.36-20.74,14.7c-.22.16-.44.33-.67.48-1.82,1.16-3.56.83-4.59-.86a3.67,3.67,0,0,1,1.18-5.12c5.26-3.78,10.56-7.51,15.84-11.26C118.06,71.39,118.66,70.93,119.57,70.26Z"/><path class="cls-1" d="M79.39,93.3c-2.71.06-4.15-2.38-3.25-5.14,2.45-7.56,4.94-15.09,7.43-22.63q2.5-7.58,5-15.14c.87-2.6,2.53-3.68,4.37-2.9s2.49,2.77,1.64,5.35Q88.44,71.51,82.28,90.19C81.71,91.94,80.84,93.14,79.39,93.3Z"/><path class="cls-1" d="M13.16,118.65c0,7.49,3.92,11.86,10.66,11.86H80.5v12.4c-3,0-6,0-8.88,0-2.38,0-3.81,1.32-3.86,3.47S69.2,150,71.69,150h43.54c2.48,0,4-1.41,3.9-3.63s-1.48-3.43-3.88-3.44c-2.92,0-5.85,0-8.87,0v-12.4h30.42c9,0,18.06,0,27.09,0a9,9,0,0,0,9-7.07H24c-3.44,0-4.43-1.08-4.43-4.83q0-16.17,0-32.34a13.2,13.2,0,0,1-6.42-1.88Q13.16,101.51,13.16,118.65Zm74,12h12.6v12.12H87.19Z"/><path class="cls-1" d="M45.9,17.15H163.11c3.14,0,4.19,1.17,4.2,4.65q0,7.19,0,14.39v2.23h6.42V21.87c0-7.44-4-11.8-10.72-11.8H42.37l.16.85A30.8,30.8,0,0,1,44,17.15Z"/><path class="cls-1" d="M147.2,113.46H30.15a2.17,2.17,0,0,1-2.05-2.26V83.42a14.15,14.15,0,0,1-2.84,1.68v26.09a5.17,5.17,0,0,0,4.9,5.4h120.2a9,9,0,0,1-.89-.8Z"/><path class="cls-1" d="M158.31,27.17a2.17,2.17,0,0,1,2.05,2.26V39.62a7.54,7.54,0,0,1,2.84-.8V29.44a5.17,5.17,0,0,0-4.9-5.4H44.23a30.66,30.66,0,0,1-.42,3.14Z"/><path class="cls-1" d="M28,.55c-1.2-.62-2.23-.7-2.92-.23a3.47,3.47,0,0,0-1,2.91c0,3.47,0,6.95,0,10.42V21.1H15.84V4c0-2-.39-3.26-1.11-3.74A1.61,1.61,0,0,0,13.82,0a5.67,5.67,0,0,0-2.55.88A23.2,23.2,0,0,0,.09,19.25,23.93,23.93,0,0,0,8,39.41a5,5,0,0,1,1.84,4.32C9.71,48,9.72,64.79,9.78,69a18.23,18.23,0,0,0,.45,4.11c1.33,5.19,6.06,8.78,10.77,8.16,5.13-.68,9-5.43,9.11-11.29.11-4.48.08-21.42,0-26.14A5.27,5.27,0,0,1,32,39.33a23.79,23.79,0,0,0,7.72-20.54C38.92,10.75,34.54,3.94,28,.55ZM35.13,24a17.72,17.72,0,0,1-7.3,12.31,5,5,0,0,0-2.37,4.91c.13,5.07.06,21.57,0,28.43a6.32,6.32,0,0,1-3.23,5.89,4.79,4.79,0,0,1-2.32.63A5.07,5.07,0,0,1,16.79,75c-1.62-1.27-2.41-3.18-2.4-5.84,0-1.6,0-4.39,0-7.63,0-7.08,0-16.77.06-20.35A5,5,0,0,0,12,36.31,17.56,17.56,0,0,1,4.73,23.37a19.21,19.21,0,0,1,5-15L11.2,6.74v12.2c0,5.09,2.09,7.37,6.76,7.38h1.31c1.21,0,2.46,0,3.68,0,3.36-.09,5.66-2.63,5.72-6.33,0-1.22,0-2.43,0-3.65q0-.82,0-1.64V7.28L30.12,8.5l.45.36a4.4,4.4,0,0,1,.82.75A19.16,19.16,0,0,1,35.13,24Z"/><path class="cls-1" d="M203.2,72.75c0-1.67-.58-2.22-2.11-2.21h-.68c-1.3,0-2.64,0-3.94.14s-1.65-.94-1.82-1.5a2.32,2.32,0,0,0-.19-.51,1.87,1.87,0,0,1,.18-2.5c1.16-1.25,2.29-2.61,3.29-3.81a2,2,0,0,0-.07-3c-3-3.2-6.11-6.42-9.16-9.57-1-1-1.77-1-2.71.09s-2.2,2.47-3.27,3.83a1.49,1.49,0,0,1-2.25.33,1.9,1.9,0,0,0-.47-.18,1.74,1.74,0,0,1-1.46-1.93c0-1.73,0-3.5-.12-5.21-.07-1.54-.63-2.11-2-2.08-4.24.1-8.48.22-12.61.38-1.34,0-1.86.66-1.86,2.17,0,.72,0,1.45,0,2.16,0,1,.06,2.1,0,3.15a2.49,2.49,0,0,1-.9,1.69c-1.47,1.2-2.85,1-4-.61a14.5,14.5,0,0,0-1.8-2l-.71-.69c-1.09-1.11-1.88-1.08-2.91.09s-2,2.3-3,3.46L147.48,56l-1.35,1.57c-1,1.14-2,2.31-3,3.49a2,2,0,0,0,.08,3c1.05,1.14,2.25,2.43,3.47,3.61a1.87,1.87,0,0,1,.3,2.49,2.35,2.35,0,0,0-.17.52c-.14.58-.41,1.65-1.75,1.6s-2.77,0-4.12.1l-.5,0c-1.54.08-2,.65-2,2.34.1,4.69.21,9.27.34,13.61,0,1.67.58,2.23,2.11,2.2h.8c1.26,0,2.56,0,3.83-.14s1.65.94,1.82,1.5a2.31,2.31,0,0,0,.19.52,1.87,1.87,0,0,1-.18,2.5c-1.16,1.24-2.29,2.61-3.29,3.81a2,2,0,0,0,.07,3c3,3.15,6.07,6.38,9.16,9.57.95,1,1.78,1,2.71-.09l.37-.42c1-1.09,2-2.23,2.89-3.41a1.51,1.51,0,0,1,2.22-.38,2.35,2.35,0,0,0,.41.19,1.79,1.79,0,0,1,1.57,2c0,1.47,0,3,.09,4.45l0,.66c.07,1.68.6,2.24,2.12,2.2,4-.1,8.18-.23,12.34-.37,1.51-.05,2-.64,2-2.33v-.78c0-1.42,0-2.89-.13-4.32a1.76,1.76,0,0,1,1.36-2,1.93,1.93,0,0,0,.46-.21,2.54,2.54,0,0,1,.39-.25,1.44,1.44,0,0,1,1.87.45c1.12,1.27,2.31,2.47,3.46,3.63,1,1,1.8,1,2.71-.07,2.89-3.32,5.8-6.72,8.68-10.11a2,2,0,0,0-.07-3l-.37-.4c-1-1.08-2-2.2-3.1-3.2A1.91,1.91,0,0,1,195,91a2.86,2.86,0,0,0,.17-.45c.16-.67.42-1.78,1.78-1.74s2.66,0,4-.09l.65,0c1.53-.07,2-.66,2-2.33C203.45,81.92,203.34,77.34,203.2,72.75ZM199.9,85a.53.53,0,0,1-.39.19l-1.35,0c-1.08,0-2.2,0-3.32,0s-1.79.53-2.15,1.83A45.68,45.68,0,0,1,191,91.8a2.15,2.15,0,0,0,.42,2.59L194,97l1.14,1.19a.66.66,0,0,1,0,.86l-6,7a.56.56,0,0,1-.17.13.51.51,0,0,1-.22.06.53.53,0,0,1-.4-.17l-1-1.08L185,102.62c-1.15-1.2-1.55-1.25-3-.43-1.22.67-2.5,1.3-3.92,1.91a2.11,2.11,0,0,0-1.41,2.29c0,1.25.06,2.51.08,3.73,0,.42,0,.83,0,1.25a.67.67,0,0,1,0,.35.63.63,0,0,1-.32.44.51.51,0,0,1-.49,0l-8.62.25a.53.53,0,0,1-.4-.18.64.64,0,0,1-.16-.44v-1.31c0-1.11,0-2.33,0-3.54a2.2,2.2,0,0,0-1.69-2.49,26.89,26.89,0,0,1-4-1.72,1.93,1.93,0,0,0-2.77.6c-.7.87-1.41,1.7-2.18,2.57l-1,1.17a.52.52,0,0,1-.78,0l-6.38-6.66a.64.64,0,0,1-.17-.43.65.65,0,0,1,.15-.44l1-1.14c.74-.88,1.51-1.78,2.3-2.65a2.35,2.35,0,0,0,.36-3,42.2,42.2,0,0,1-1.81-4.47c-.43-1.24-1.05-1.72-2.14-1.65s-2.24.11-3.32.16l-1.33.06a.53.53,0,0,1-.4-.16.64.64,0,0,1-.18-.43l-.24-9.74a.59.59,0,0,1,.54-.63l1.13,0,3.23-.11c1.62-.06,1.89-.29,2.43-2.06.46-1.5,1-3,1.57-4.41a2.19,2.19,0,0,0-.45-2.71c-.81-.83-1.6-1.65-2.43-2.53l-1.12-1.18a.64.64,0,0,1-.17-.43.65.65,0,0,1,.15-.44l6-7a.53.53,0,0,1,.39-.19.53.53,0,0,1,.4.17l1.06,1.09c.8.82,1.62,1.67,2.41,2.54a1.81,1.81,0,0,0,2.58.42c1.47-.83,3-1.54,4.29-2.11a2,2,0,0,0,1.34-2.18c-.07-1.28-.14-2.55-.22-3.8l-.09-1.52a.65.65,0,0,1,.14-.45.53.53,0,0,1,.39-.2l9.05-.25a.53.53,0,0,1,.4.17.64.64,0,0,1,.17.43c0,.46,0,.93,0,1.42,0,1.13,0,2.31,0,3.48,0,1.71.25,2,1.77,2.59,1.22.45,2.48,1,3.87,1.66s1.82.59,2.89-.64l1.2-1.38,1.74-2a1,1,0,0,1,.32-.23l.12-.07a.51.51,0,0,1,.65.09l6.29,6.57a.64.64,0,0,1,.17.43.65.65,0,0,1-.15.44l-1,1.2c-.75.88-1.52,1.79-2.3,2.66a2.28,2.28,0,0,0-.35,2.85,39.66,39.66,0,0,1,1.82,4.47c.43,1.29,1.08,1.79,2.23,1.72s2.24-.12,3.33-.17l1.4-.06a.53.53,0,0,1,.4.16.64.64,0,0,1,.17.43l.2,9.84A.65.65,0,0,1,199.9,85Z"/><path class="cls-1" d="M181,68.95a13.64,13.64,0,0,0-10.33-4.37,13.78,13.78,0,0,0-10.12,4.93A17.17,17.17,0,0,0,161,92.06a13.56,13.56,0,0,0,20.45-.46,16.86,16.86,0,0,0,4-11.45A16.66,16.66,0,0,0,181,68.95Zm-2.29,19.64a10.63,10.63,0,0,1-3.21,2.54A9.83,9.83,0,0,1,163.69,89a12.18,12.18,0,0,1-3.28-8.18,12.31,12.31,0,0,1,2.9-8.35,9.94,9.94,0,0,1,15-.41,12.16,12.16,0,0,1,3.28,8.18A12.29,12.29,0,0,1,178.69,88.59Z"/></g></g></svg>