<svg xmlns="http://www.w3.org/2000/svg" viewBox="0 0 177.19 150"><defs><style>.cls-1{fill:#0c57c9;}</style></defs><title>system</title><g id="圖層_2" data-name="圖層 2"><g id="圖層_1-2" data-name="圖層 1"><path class="cls-1" d="M78.85,43.54V15.82H72.27c-2.38-.37-4-2.11-4.67-5.15a32.31,32.31,0,0,0-2-5.46c-.29-.67-.57-1.33-.84-2C63.51.05,61.89-.66,58.81.57s-6,2.44-9,3.67L46,5.83,42,7.5c-3,1.21-6,2.45-9,3.73-2.72,1.16-3.43,2.88-2.38,5.75,1.16,3.18,2.48,6.78,4,10.2a3.71,3.71,0,0,1-1.5,5,4.54,4.54,0,0,0-.79.83c-.78,1-2.24,2.73-4.91,1.34s-5.62-2.63-8.43-3.81l-1-.43c-3.2-1.34-4.66-.73-6,2.51C8.08,41.62,4.42,50.41,1,58.76-.33,62,.28,63.54,3.39,65L5,65.73c2.56,1.19,5.21,2.43,7.87,3.43s2.54,3.37,2.41,4.61a4.71,4.71,0,0,0,0,1.17c.4,2.29-.44,3.82-2.49,4.56-3.41,1.23-6.85,2.73-9.89,4C.12,84.74-.6,86.45.48,89.28c3.37,8.87,6.88,18,10.42,27,1.09,2.78,2.8,3.54,5.56,2.46l1.1-.43c2.91-1.13,5.91-2.3,8.74-3.66,2.66-1.29,4.06.48,4.81,1.43a5.61,5.61,0,0,0,.66.75c1.07.91,2.86,2.43,1.52,5.24s-2.48,5.68-3.6,8.51l-.5,1.27c-1.3,3.26-.69,4.83,2.41,6.22,8.25,3.7,16.76,7.48,25.31,11.23,3.11,1.36,4.63.74,6-2.47l.65-1.49c1.19-2.71,2.41-5.5,3.4-8.31s3.26-2.65,4.46-2.51a6.92,6.92,0,0,0,.82.05v-.1h6.58V106.77H72.27a30.73,30.73,0,0,1-28-20,32.32,32.32,0,0,1,.4-24.18,30.9,30.9,0,0,1,16.8-16.86,29.52,29.52,0,0,1,10.75-2.21h6.58Zm-20-4.86c-19.46,8-29.07,30.74-21.41,50.78a38.16,38.16,0,0,0,34.82,24.91v12.44c-1.72,0-3.49-.09-5.35-.21a4.25,4.25,0,0,0-4.8,3c-1,2.41-2,4.82-3,7.15l-1,2.39a1.29,1.29,0,0,1-.32.64,1.28,1.28,0,0,1-1,.53,1.22,1.22,0,0,1-1-.51L38.09,131.9a1.26,1.26,0,0,1-.67-.72,1.31,1.31,0,0,1,0-1l1.14-2.47c1-2.1,2-4.39,3.1-6.66,1.22-2.56.84-4.4-1.3-6.35a64.6,64.6,0,0,1-6.71-7.15c-1.82-2.25-3.59-2.69-6.12-1.53-2.15,1-4.31,1.85-6.59,2.77l-3,1.23a1.19,1.19,0,0,1-.95,0,1.26,1.26,0,0,1-.66-.7L9.08,90.5a1.31,1.31,0,0,1,0-1,1.26,1.26,0,0,1,.68-.68l2.92-1.22c2.24-.94,4.56-1.92,6.9-2.8s3.4-2.45,3.25-5.28A86.37,86.37,0,0,1,23,69.31c.18-2.76-.67-4.27-2.93-5.2s-4.63-2-6.86-2.91L10.43,60a1.26,1.26,0,0,1-.67-.7,1.31,1.31,0,0,1,0-1l7.78-18.71A1.22,1.22,0,0,1,19.17,39l2.31,1,6.63,2.92c3.32,1.45,4.07,1.28,6.66-1.56a95.28,95.28,0,0,1,6.93-6.84c1.9-1.69,2.3-3.3,1.39-5.56s-1.84-4.69-2.78-7.15L39,18.47a1.31,1.31,0,0,1,0-1,1.26,1.26,0,0,1,.68-.68l18.2-7.49a1.2,1.2,0,0,1,.95,0,1.26,1.26,0,0,1,.66.7q.6,1.55,1.21,3.1c.91,2.33,1.86,4.74,2.72,7.14s2.3,3.42,4.87,3.3c1.32-.06,2.65-.07,3.94-.07V36A36.53,36.53,0,0,0,58.86,38.68Z"/><path class="cls-1" d="M48.38,52.69a3,3,0,0,1,0-5.95l37.29-.53L95.79,23.55a2.88,2.88,0,0,1,2.61-1.73h13.41a3,3,0,0,1,0,6H100.24L90.1,50.41a2.88,2.88,0,0,1-2.57,1.72l-39.1.56Z"/><path class="cls-1" d="M120.82,35.85A11.73,11.73,0,0,1,109.3,24a11.53,11.53,0,1,1,23,0A11.73,11.73,0,0,1,120.82,35.85Zm0-17.85A6,6,0,1,0,126.58,24,5.86,5.86,0,0,0,120.82,18Z"/><path class="cls-1" d="M40.15,65.44a3,3,0,0,1,0-6L104.46,59l4.44-11.46a2.88,2.88,0,0,1,2.67-1.87h24.11a3,3,0,0,1,0,6H113.52L109.09,63a2.88,2.88,0,0,1-2.65,1.87l-66.26.56Z"/><path class="cls-1" d="M146.33,59.65a11.91,11.91,0,1,1,11.52-11.9A11.73,11.73,0,0,1,146.33,59.65Zm0-17.85a6,6,0,1,0,5.76,5.95A5.86,5.86,0,0,0,146.33,41.8Z"/><path class="cls-1" d="M111.81,127.92H98.4a2.88,2.88,0,0,1-2.61-1.73L85.63,103.53,48.34,103a3,3,0,0,1,.08-5.95l39.1.56a2.88,2.88,0,0,1,2.57,1.72L100.24,122h11.57a3,3,0,0,1,0,6Z"/><path class="cls-1" d="M120.82,137.69a11.91,11.91,0,1,1,11.52-11.9A11.73,11.73,0,0,1,120.82,137.69Zm0-17.85a6,6,0,1,0,5.76,5.95A5.86,5.86,0,0,0,120.82,119.84Z"/><path class="cls-1" d="M135.67,104.12H111.57a2.88,2.88,0,0,1-2.67-1.87l-4.44-11.46-64.33-.54a3,3,0,0,1,0-6h0l66.26.56a2.88,2.88,0,0,1,2.65,1.87l4.43,11.44h22.16a3,3,0,0,1,0,6Z"/><path class="cls-1" d="M146.33,113.89A11.91,11.91,0,1,1,157.85,102,11.73,11.73,0,0,1,146.33,113.89Zm0-17.85a6,6,0,1,0,5.76,5.95A5.86,5.86,0,0,0,146.33,96Z"/><path class="cls-1" d="M165.67,87.24a11.91,11.91,0,1,1,11.52-11.9A11.73,11.73,0,0,1,165.67,87.24Zm0-17.85a6,6,0,1,0,5.76,5.95A5.86,5.86,0,0,0,165.67,69.39Z"/><path class="cls-1" d="M156.69,78.31H43.32a3,3,0,0,1,0-6H156.69a3,3,0,0,1,0,6Z"/></g></g></svg>