<svg xmlns="http://www.w3.org/2000/svg" viewBox="0 0 98 81.5"><defs><style>.cls-1{fill:#fff;}</style></defs><title>資產 3</title><g id="圖層_2" data-name="圖層 2"><g id="圖層_1-2" data-name="圖層 1"><path class="cls-1" d="M96.31,10.51h0c-1-.46-2.26-.16-3.53.84a30.61,30.61,0,0,0-2.32,2.1l-1,1a.14.14,0,0,1-.14,0,.15.15,0,0,1-.1-.08l-.32-.69c-.68-1.49-1.59-2.18-2.87-2.19a2.92,2.92,0,0,0-2.71,2.09,22.72,22.72,0,0,0-.82,2.32c-.09.3-.17.56-.26.81a.15.15,0,0,1-.14.1,3.41,3.41,0,0,0-2.72.87c-1.27,1.23-1.55,2.12-2.15,4.06-.17.55-.36,1.19-.62,1.93a.16.16,0,0,1-.11.1c-1.78.41-2.75,1.16-2.72,3.93a58.15,58.15,0,0,0,.83,8.66,4,4,0,0,1-.94,3.51c-2.55,3.22-6,5-9.44,6.74l-1.4.71c-4.86,2.48-9.88,5-13.72,9.47l-.11.05-.08-.06h0l-.28-.32a4.54,4.54,0,0,0-.47-.5l-.81-.69a55.23,55.23,0,0,0-6.69-5.13c-1.76-1.09-3.72-2.07-5.61-3-1.55-.78-3.14-1.58-4.62-2.43A27.66,27.66,0,0,1,25.9,41.2c-.55-.49-1.05-.94-1.56-1.38a3.57,3.57,0,0,1-.9-3.55,68.93,68.93,0,0,0,.82-8.45,4.79,4.79,0,0,0-.91-3.5,1.91,1.91,0,0,0-1.58-.5.15.15,0,0,1-.13-.07,7.2,7.2,0,0,1-.78-2.63,12.58,12.58,0,0,0-.46-2,4.55,4.55,0,0,0-2.22-2.71,1.94,1.94,0,0,0-1.62.45l-.27.16a.15.15,0,0,1-.16-.08c-.27-.53-.52-1.1-.76-1.62a11.24,11.24,0,0,0-1.86-3.23,2.76,2.76,0,0,0-2.51-1c-.6.14-1.44.63-2,2.19-.22.57-.5.62-.59.63-.56.09-1.14-.63-1.65-1.24a4.09,4.09,0,0,0-.57-.61,4.49,4.49,0,0,1-.35-.34,3.6,3.6,0,0,0-.57-.53,3.47,3.47,0,0,0-3.54-.62A3.69,3.69,0,0,0,.06,13.79a18.28,18.28,0,0,0,.19,4.42c.55,3.38,1.22,7.38,2.1,11.42l.39,1.81C3.7,35.93,4.7,40.58,6,45c1.66,5.79,3.46,7.86,3.57,8,1.07,1,2.15,2.09,3.24,3.17,2,2,4.09,4.06,6.24,5.93A53.42,53.42,0,0,0,24,65.77c1,.69,2,1.39,3,2.13A8.42,8.42,0,0,1,30.62,76a12.13,12.13,0,0,0,0,3.7c.15.73.89,1.7,1.36,1.77a.93.93,0,0,0,.84-.22,2.05,2.05,0,0,0,.51-1.53c0-.7,0-1.4,0-2.1A20.24,20.24,0,0,0,33.2,73c-.3-1.46-1-4.11-2.51-5.53a63.63,63.63,0,0,0-6.43-5.1l-.14-.1c-.95-.69-2-1.45-3-2.21l-.63-.48A54.8,54.8,0,0,1,16.13,56l-.27-.25-.11-.1A25.14,25.14,0,0,1,10.17,49a33.63,33.63,0,0,1-3-10l-.06-.37q-.8-4.21-1.62-8.42l-.19-1Q4.18,23.65,3.1,18a17.94,17.94,0,0,1-.23-2.41c0-.38,0-.75-.06-1.12a.16.16,0,0,1,.1-.17s1-.3,2.13,1a3.81,3.81,0,0,1,.32.42l.09.12c.23.32.45.66.65,1a15.29,15.29,0,0,1,1,2.08,19.26,19.26,0,0,1,1.23,4.66c.09.62,1,5.41,1.24,6.15l.31,1c1.78,5.54,3.4,10.53,5.34,15.45,1.11,2.81,4.09,5.73,6.56,7.38l.61.42.14.1c.27.19.54.38.82.56a2.18,2.18,0,0,0,1.65.49,1.36,1.36,0,0,0,.79-.74c.55-1-.08-1.55-.94-2.27-2-1.73-4.06-3.6-5.93-5.36a4.3,4.3,0,0,1-.74-1.08c-.13-.24-.26-.48-.4-.68l-.57-1.17c-1-2.62-2-5.25-2.9-7.79l-1-2.81a.16.16,0,0,1,0-.18,2.45,2.45,0,0,1,1.86-.74,2.23,2.23,0,0,1,1.47,1.09c.42.61.82,1.27,1.17,1.86s.88,1.47,1.37,2.15a72.08,72.08,0,0,0,5.2,6.5c.9.94,4.1,2.86,6.92,4.55l.13.08c1.07.64,2.12,1.27,3,1.83l.86.54c3.32,2.07,6.75,4.21,10,6.46,1.5,1,2.24,2.77,2.22,5.16s0,5,0,7.54c0,1.91,0,3.81,0,5.72,0,1.56.47,2.33,1.44,2.35a1.2,1.2,0,0,0,1-.34,2.77,2.77,0,0,0,.5-2c0-1.26,0-2.53,0-3.86,0-2.19,0-4.45,0-6.69-.13-3.27.21-6.91,3.67-9.2,2.66-1.76,5.1-3.28,7.46-4.65,1.29-.75,2.61-1.46,3.9-2.14,2-1.08,4.11-2.2,6.07-3.47a19.57,19.57,0,0,0,4.67-4.5A49.28,49.28,0,0,0,79,37c.58-.94,1.23-2,1.91-3,1-1.39,1.88-2.43,3.58-1.25a.17.17,0,0,1,.06.17C81.77,44.62,78.66,48,77,49c-.55.44-1.09.85-1.64,1.27a31.23,31.23,0,0,0-2.56,2.09,2.24,2.24,0,0,0-.54,1.86l.22.65.27-.22.24.12a1.84,1.84,0,0,0,.64.17h.12l.1-.05a21.64,21.64,0,0,0,6.31-4.44C83.6,47,85,42,86.31,37.13l0-.15c.94-3.44,1.76-7,2.54-10.42l.21-.92c.35-1.53.7-3.05,1.06-4.58.67-2.79,3.08-6.67,4.27-7.29a.63.63,0,0,1,.55-.06c.92.41.4,2.69-.07,4.7-.08.33-.15.63-.2.9-.59,2.79-1.21,5.6-1.82,8.31-1,4.48-2.14,9.55-3,14.48a26,26,0,0,1-1.44,4.76l-.07.18C86,53.13,81.12,56.81,76.42,60.36l-1.12.85c-2.65,2-5.38,4.1-8,6.34a7.48,7.48,0,0,0-2.58,5.34,53.35,53.35,0,0,0,0,7A2.3,2.3,0,0,0,66,81.48l.21,0a1,1,0,0,0,.68-.26,2,2,0,0,0,.5-1.46c0-.67,0-1.35,0-2.14v-.17c0-.91,0-1.81,0-2.71a6.49,6.49,0,0,1,2.37-5.65c3.36-2.58,6.74-5,9.6-7.09A69.52,69.52,0,0,0,87,55.22c3-4.09,5.17-9.12,6.69-15.83C95,33.81,96,28.05,97,22.49l.55-3.06A23.72,23.72,0,0,0,98,13.77C97.86,12.14,97.27,11,96.31,10.51ZM84.37,28.86c-.92-2.08-1-10.35,1.55-13.59.05-.07.19-.09.19-.11.7,1-.5,11.57-.85,13.66-.11.48-.21.58-.33.58S84.53,29.22,84.37,28.86Zm-6.66,6.31-.1-.49a.58.58,0,0,1-.36-.15c-.55-.44-1-1.68-1.2-3.67-.21-1.71-.08-2.84.38-3.35a.76.76,0,0,1,.52-.26h0a.16.16,0,0,1,.14.14l.67,7.11a.15.15,0,0,1-.13.17Zm3.35-15v8.9a.16.16,0,0,1-.13.16.53.53,0,0,1-.37-.18c-.39-.38-.88-1.52-1-4.73-.06-2.22.21-3.61.8-4.13a.7.7,0,0,1,.46-.19H81A.16.16,0,0,1,81.07,20.18ZM18,29.6h0a.16.16,0,0,1-.09.08c-.12,0-.15,0-.17-.06-1.19-1.52-1.48-8-.46-10.27a.16.16,0,0,1,.1-.09h0a.14.14,0,0,1,.11,0C18.63,20.39,18.8,28.06,18,29.6Zm3.7-2.51c-.07,1-.17,2.08-.28,3.22v.07c-.11,1.17-.22,2.38-.3,3.51,0,.06,0,.12-.15.15a.15.15,0,0,1-.12-.06c-.92-1.13-.95-3.54-.1-6.37.31-.59.56-.69.75-.69h.06A.16.16,0,0,1,21.73,27.09Zm-8.45,2.31a.17.17,0,0,1-.14.09.15.15,0,0,1-.11-.05C11.34,27.55,10.4,19,11.55,16a.16.16,0,0,1,.1-.1h0a.15.15,0,0,1,.1,0C13,17,14.34,26.86,13.27,29.39ZM22.83,53.6h0Z"/><path class="cls-1" d="M49.35,41.27a1.79,1.79,0,0,1-.93-.26C47.71,40.58,30.88,30.31,28,20.5c-2.8-9.43.17-17,7.73-19.89,3.21-1.2,6.66-.62,10,1.69a21,21,0,0,1,3.64,3.27C51.75,3,56.76-1.18,62.74.56h0a12.13,12.13,0,0,1,7.6,6.06c2,3.73,2.06,8.67.3,13.91C67.41,30.17,51,40.56,50.31,41A1.79,1.79,0,0,1,49.35,41.27ZM39,3.59A5.85,5.85,0,0,0,37,4c-5.8,2.18-7.82,7.83-5.55,15.51,2.16,7.28,14.4,15.6,17.92,17.87a93.27,93.27,0,0,0,7.55-5.61c5.63-4.67,9.21-8.94,10.36-12.36,1.45-4.3,1.42-8.24-.08-11.1A8.51,8.51,0,0,0,61.74,4c-2.15-.62-4.44-.14-6.81,1.44a17.88,17.88,0,0,0-4.18,4,1.79,1.79,0,0,1-1.45.74h0a1.79,1.79,0,0,1-1.45-.73,19.14,19.14,0,0,0-4.22-4.2A8.17,8.17,0,0,0,39,3.59Z"/></g></g></svg>