<svg xmlns="http://www.w3.org/2000/svg" viewBox="0 0 150 150"><defs><style>.cls-1{fill:#0c57c9;}</style></defs><title>progress</title><g id="圖層_2" data-name="圖層 2"><g id="圖層_1-2" data-name="圖層 1"><path class="cls-1" d="M75,30.71c2.27,0,4.54,0,6.8,0,2,0,2.85.94,2.88,3a26.91,26.91,0,0,1,0,4.12c-.26,1.84.48,2.77,2.08,3.06a1.79,1.79,0,0,0,1.4-.3c1.31-1.24,2.5-2.61,3.78-3.89s2.54-1.34,3.83,0q4.95,5.13,9.83,10.32a2.6,2.6,0,0,1,0,4c-1.21,1.34-2.43,2.69-3.75,3.92-1.05,1-.05,1.71.11,2.54s.46,1.18,1.32,1.14c1.76-.08,3.53,0,5.29,0s2.7,1,2.72,2.85q0,7.3,0,14.59c0,1.87-.93,2.82-2.71,2.85s-3.53.06-5.29,0c-.86,0-1.18.42-1.33,1.14s-1.17,1.56-.13,2.54c1.28,1.2,2.45,2.51,3.64,3.8,1.4,1.52,1.41,2.76,0,4.26q-4.79,5.07-9.62,10.09c-1.44,1.49-2.61,1.48-4.06,0-1.23-1.25-2.48-2.49-3.62-3.82-.67-.78-1.25-.46-1.86-.11s-1.73.26-1.65,1.63c.1,1.84.05,3.7,0,5.55s-.94,2.84-2.72,2.85q-7,0-13.91,0c-1.79,0-2.68-1-2.71-2.85s-.06-3.7,0-5.55A1.2,1.2,0,0,0,64.26,97c-.79-.17-1.48-1.23-2.42-.12-1.14,1.34-2.39,2.57-3.62,3.82-1.45,1.47-2.63,1.48-4.06,0q-4.83-5-9.62-10.09c-1.42-1.5-1.41-2.74,0-4.26,1.19-1.29,2.37-2.6,3.65-3.8.74-.7.44-1.3.1-1.95s-.25-1.82-1.55-1.74c-1.76.11-3.53.05-5.29,0s-2.7-1-2.71-2.85q0-7.3,0-14.59c0-1.88.92-2.81,2.71-2.85s3.53-.06,5.29,0c.86,0,1.19-.42,1.33-1.14S49.22,56,48.18,55c-1.27-1.2-2.45-2.51-3.64-3.8-1.41-1.52-1.42-2.75,0-4.25q4.79-5.07,9.62-10.09c1.43-1.49,2.6-1.49,4.06,0,1.23,1.25,2.49,2.48,3.62,3.82.93,1.1,1.63.05,2.42-.12a1.19,1.19,0,0,0,1.09-1.39c-.07-1.85,0-3.7,0-5.55s.92-2.82,2.71-2.85C70.36,30.69,72.68,30.71,75,30.71Zm4.84,71c0-2,0-3.91,0-5.81a2.71,2.71,0,0,1,2-2.83,42,42,0,0,0,4.6-2,2.71,2.71,0,0,1,3.67.62c1.2,1.34,2.43,2.64,3.58,3.88l7-7.26c-1.22-1.24-2.47-2.54-3.75-3.8a3,3,0,0,1-.57-3.85A40.31,40.31,0,0,0,98.14,76a2.74,2.74,0,0,1,2.92-2.19c1.75,0,3.5,0,5.3,0v-10a1.63,1.63,0,0,0-.37-.12l-4.69,0c-2,0-2.57-.49-3.23-2.39-.51-1.49-1.08-3-1.71-4.39-.83-1.88-.76-2.59.67-4.07,1.2-1.25,2.44-2.47,3.54-3.57l-7-7.41c-1.17,1.32-2.39,2.71-3.63,4.09a2.52,2.52,0,0,1-3.29.59c-1.55-.74-3.12-1.46-4.73-2.05a2.86,2.86,0,0,1-2.06-3.09c0-1.83,0-3.67,0-5.51H70.16c0,2,0,3.8,0,5.65a2.77,2.77,0,0,1-2,2.94,44.42,44.42,0,0,0-4.33,1.83c-1.89.92-2.54.86-4-.68l-3.4-3.55L49.5,49.31c1.15,1.17,2.4,2.47,3.68,3.74a3,3,0,0,1,.55,3.73,42.94,42.94,0,0,0-1.84,4.67,2.8,2.8,0,0,1-3,2.27c-1.74-.05-3.49,0-5.2,0V73.86c1.78,0,3.45.05,5.1,0a2.86,2.86,0,0,1,3.14,2.33,33.12,33.12,0,0,0,1.77,4.53,3.06,3.06,0,0,1-.66,4c-1.26,1.2-2.51,2.42-3.55,3.44l6.95,7.31c-.13.05-.07,0,0,0,1.22-1.26,2.46-2.5,3.65-3.78a2.61,2.61,0,0,1,3.42-.6c1.41.7,2.84,1.34,4.31,1.89,1.92.73,2.39,1.32,2.39,3.46,0,1.77,0,3.55,0,5.34Z"/><path class="cls-1" d="M9.29,122.28a15.8,15.8,0,0,1,3.13-19.45,14.07,14.07,0,0,1,17.81-.76c4.56,3.43,8.44,10.86,4.48,20.08A9.32,9.32,0,0,0,35.82,121c3.49-4.85,7-9.73,10.44-14.58a6.44,6.44,0,0,1,6.45-3,6.58,6.58,0,0,1,5.5,4.61,7.35,7.35,0,0,1-1.11,7C52,122.38,47,129.63,42,136.94a5.54,5.54,0,0,0-.84,2.73c-.12,2.43,0,4.86,0,7.29,0,2.09-.89,3-2.85,3q-16.48,0-33,0c-2,0-2.89-.95-2.89-3.15q0-7.06,0-14.12c0-4.79,2.1-8.14,6.32-10a3.9,3.9,0,0,0,.4-.21S9.19,122.42,9.29,122.28Zm-2,22.53h29c0-2.22-.11-4.34,0-6.44a7.13,7.13,0,0,1,1-3.33c5.06-7.44,10.21-14.81,15.33-22.21a12.38,12.38,0,0,0,.85-1.31,1.94,1.94,0,0,0-.62-2.64,1.71,1.71,0,0,0-2.46.25,11.54,11.54,0,0,0-1,1.36c-3.6,5-7.17,10.08-10.82,15.07a3.57,3.57,0,0,1-2.14,1.51,52.08,52.08,0,0,1-7.7,0,2.81,2.81,0,0,1-2-1.61,4.6,4.6,0,0,1,.5-2.6c.14-.39.66-.63,1-.95A10.42,10.42,0,0,0,30,109.06a9.41,9.41,0,0,0-11.91-4,10.25,10.25,0,0,0-5.72,11.51,9.82,9.82,0,0,0,3.36,5.67,2.77,2.77,0,0,1,1.14,3.16,2.56,2.56,0,0,1-2.91,1.72,17.81,17.81,0,0,0-2.12,0,4.84,4.84,0,0,0-4.51,4.69C7.2,136.14,7.27,140.41,7.27,144.81Z"/><path class="cls-1" d="M115.2,122.19c-2.78-8.83-1.36-15.56,4.42-20a14.05,14.05,0,0,1,17.58.31c5.67,4.8,6.9,11.62,3.53,19.93.4.19.8.38,1.19.58a9.86,9.86,0,0,1,5.63,9c.11,5,0,9.94,0,14.91,0,2.08-.88,3-2.85,3q-16.48,0-33,0c-2,0-2.86-.93-2.88-3,0-2.48.06-5,0-7.45A5.21,5.21,0,0,0,108,137q-7.44-10.89-15-21.69a7.57,7.57,0,0,1-1.58-5.77,6.75,6.75,0,0,1,5.08-5.84,6.28,6.28,0,0,1,7.1,2.63c2.3,3.08,4.49,6.24,6.73,9.37,1.3,1.82,2.59,3.64,3.9,5.45A13.7,13.7,0,0,0,115.2,122.19Zm27.52,22.65c0-4.49.1-8.87,0-13.24a4.77,4.77,0,0,0-4.58-4.43,11.75,11.75,0,0,1-2.85-.09,3.27,3.27,0,0,1-2-1.61c-.25-.71.2-1.75.48-2.6.11-.35.58-.57.88-.85a10.38,10.38,0,0,0,1.72-13.09,9.48,9.48,0,0,0-12.26-3.66c-6.42,3.16-7.45,12-1.94,17,1,.87,1.59,1.83,1.16,3.15s-1.56,1.78-2.9,1.75c-2,0-3.93-.07-5.89,0a3.43,3.43,0,0,1-3.2-1.66c-2.92-4.17-5.91-8.3-8.87-12.44-.88-1.23-1.73-2.47-2.65-3.66a1.78,1.78,0,0,0-2.78-.47,2,2,0,0,0-.35,2.94c.28.44.59.86.88,1.29,5,7.18,9.94,14.37,15,21.52a6,6,0,0,1,1.23,3.94c-.1,2,0,4.09,0,6.21Z"/><path class="cls-1" d="M145.17,23.17c0,12.54-9.82,22.77-21.78,22.77S101.59,35.65,101.62,23,111.47.2,123.53.26,145.19,10.6,145.17,23.17Zm-4.35-.1c0-10-7.84-18.24-17.41-18.25S106,13,106,23s7.79,18.3,17.34,18.32S140.81,33.18,140.81,23.07Z"/><path class="cls-1" d="M9.43,20.51C9.46,9.16,18.29,0,29.14,0S48.64,9.3,48.63,20.6,39.77,41.15,28.92,41.11,9.41,31.8,9.43,20.51Zm34.84,0c0-8.79-6.87-16-15.26-16s-15.24,7.23-15.21,16,6.89,16,15.26,16S44.28,29.32,44.27,20.53Z"/><path class="cls-1" d="M33.86,73.85c0,9.76-7.62,17.78-16.92,17.77S0,83.64,0,73.86,7.62,56.09,16.93,56.09,33.85,64.06,33.86,73.85ZM29,73.92c0-7-5.4-12.74-12.06-12.75S4.9,66.79,4.84,73.71s5.34,12.79,12,12.83S29,80.92,29,73.92Z"/><path class="cls-1" d="M133,94.16c-9.31,0-16.89-8.07-16.86-17.84s7.69-17.72,17-17.68S150,66.69,150,76.47,142.31,94.2,133,94.16Zm0-5.08c6.67,0,12.14-5.69,12.14-12.67s-5.38-12.64-12-12.7S121,69.32,121,76.3,126.36,89.06,133,89.08Z"/><path class="cls-1" d="M91.3,10A63.62,63.62,0,0,0,61,9.44L60,4.51a67.47,67.47,0,0,1,32.5.59c-.2.88-.36,1.68-.56,2.47S91.55,9.08,91.3,10Z"/><path class="cls-1" d="M7.32,45.82V40.95H12v4.88Z"/><path class="cls-1" d="M75.07,48.48c10.62,0,19.31,9.19,19.29,20.34s-8.78,20.32-19.5,20.27S55.61,79.84,55.65,68.67,64.43,48.45,75.07,48.48ZM75,84c8,0,14.54-6.84,14.55-15.19S83,53.58,75,53.56,60.5,60.38,60.49,68.74,67,84,75,84Z"/><path class="cls-1" d="M125.57,32.17h-4.34c0-2.37-.12-4.7.07-7,.06-.7.86-1.47,1.5-2a9.78,9.78,0,0,1,2.16-.81,4.43,4.43,0,0,0,2.75-4.72A4.39,4.39,0,0,0,124.07,14a4.29,4.29,0,0,0-4.78,2.89c-.15.44-.24.9-.38,1.42l-4,.25c-.6-3.62,2.31-7.79,6.09-8.83a8.64,8.64,0,0,1,10.7,5.84,9,9,0,0,1-5.26,11.17,1.19,1.19,0,0,0-.84,1.36C125.6,29.39,125.57,30.72,125.57,32.17Z"/><path class="cls-1" d="M125.49,39h-4.18V34.61h4.18Z"/><path class="cls-1" d="M22.42,22.77H18.25v-4.4h4.17Z"/><path class="cls-1" d="M26.92,18.33h4.2v4.43h-4.2Z"/><path class="cls-1" d="M39.81,22.79H35.64V18.35h4.17Z"/><path class="cls-1" d="M25.65,70.87l-6.09,6.37c-1.07,1.12-2.11,2.27-3.22,3.35S14,81.85,13,80.82c-1.68-1.65-3.24-3.44-4.89-5.21L11.58,72l2.59,3.58,8.08-8.71Z"/><path class="cls-1" d="M129.64,76.14l-3.23-2.76,3.94-3.71,2.53,3.48L136,69.42l3.7,3.84-3.54,3,3.76,2.93-4.11,3.87L133.2,79.7l-3.05,3.69-3.42-4,3.13-2.45Z"/><path class="cls-1" d="M67.74,68.68c0-2.38,0-4.75,0-7.13s1.85-3.64,3.91-2.38q5.86,3.6,11.64,7.33a2.56,2.56,0,0,1,0,4.58q-5.78,3.73-11.64,7.33c-2,1.22-3.82.11-3.86-2.29S67.74,71.16,67.74,68.68Zm4.92-3v6.16l4.87-3.1Z"/></g></g></svg>