<svg xmlns="http://www.w3.org/2000/svg" viewBox="0 0 473.71 66.72"><defs><style>.cls-1{fill:#fff;}</style></defs><title>資產 7</title><g id="圖層_2" data-name="圖層 2"><g id="圖層_1-2" data-name="圖層 1"><path class="cls-1" d="M42.2,4a8.43,8.43,0,0,1,2.21,3.78.53.53,0,0,0,0,.12A3.63,3.63,0,0,0,47.19,10a4.37,4.37,0,0,0,3.54-1.34c.69-.88.86-2.16.46-3.91A6.89,6.89,0,0,0,44.81.72c-2.21-.09-3.63.11-4.35.62a.47.47,0,0,0-.19.29C40.21,2,40.31,2.35,42.2,4Z"/><path class="cls-1" d="M63.47,62.17c-1.77-2.63-3.56-4.37-5.32-5.15a.47.47,0,0,0-.35,0c-.83.31-1.76,1.39-2.88,3.37-.55.82-.9,1.28-1.1,1.55a8.25,8.25,0,0,1,0-.89V50.4A4,4,0,0,1,54.62,48a1.71,1.71,0,0,0,.68-1.49c-.09-.69-.69-1.32-1.8-1.9l-2.7-1.75a3.56,3.56,0,0,0-4.31.53l-.08.09c-.83,1.28-1.68,1.15-2.25.95l-.16,0H17.93a4.28,4.28,0,0,1-1.84-.21A42.4,42.4,0,0,0,11.17,42a2.08,2.08,0,0,0-2,.06,2.19,2.19,0,0,0-.73,1.9V61.17c0,.81-.35,1.13-1.16,1.13L2.93,62A2.22,2.22,0,0,0,1,62.5a1.61,1.61,0,0,0-.31,1.42c.14.69.64,1.44,2.17,1.44a5.94,5.94,0,0,0,.88-.07L5.89,65H61.08c1.87,0,2.34-.13,2.57-.27a.46.46,0,0,0,.13-.12A1.76,1.76,0,0,0,63.47,62.17ZM45.79,48.34V61.17c0,.81-.35,1.13-1.2,1.13H42.73c-.8,0-1.13-.35-1.13-1.2V48.27c0-.8.35-1.13,1.2-1.13h1.86C45.46,47.14,45.79,47.48,45.79,48.34Zm-12.24,0V61.17c0,.81-.35,1.13-1.2,1.13H30.23c-.8,0-1.13-.35-1.13-1.2V48.27c0-.8.35-1.13,1.2-1.13h2.13C33.23,47.14,33.55,47.48,33.55,48.34Zm-12.5,0V61.17c0,.81-.35,1.13-1.2,1.13H17.73c-.8,0-1.13-.35-1.13-1.2V48.54a6.15,6.15,0,0,1,.1-1.35,29.92,29.92,0,0,1,3.21-.05C20.73,47.19,21.05,47.48,21.05,48.34Z"/><path class="cls-1" d="M9.79,36.17A42.4,42.4,0,0,0,11.54,26.1a1.83,1.83,0,0,1,1.73-1.84h7.12c.8,0,1.13.33,1.13,1.13a19.68,19.68,0,0,1-.27,3.17c-.11,2.34-.71,4-1.79,4.79a4.64,4.64,0,0,1-3.87.57,2.69,2.69,0,0,0-2.34.07,1.49,1.49,0,0,0-.59,1.22.46.46,0,0,0,.14.35,9,9,0,0,0,2.29,1.36,5.23,5.23,0,0,1,2.23,3.49,1.34,1.34,0,0,0,.5.92,3.17,3.17,0,0,0,2.33.36c2.2-.19,4.32-1.5,6.35-4a23.4,23.4,0,0,0,2.85-10.33,5.79,5.79,0,0,1,.59-2.27,1.72,1.72,0,0,0,.95-1.46.46.46,0,0,0,0-.17c-.45-1.14-1.84-2.31-4.31-3.58a3.8,3.8,0,0,0-4.38.51,3.32,3.32,0,0,1-2.52,1.12H13.14c-1.17,0-1.33-.51-1.33-1.06l.07-4.5c.09-1.38.72-1.56,1.26-1.56H30.76a1.33,1.33,0,0,1,1.47,1.2,39.43,39.43,0,0,0,5.06,14.56,2.23,2.23,0,0,1-.45,3.24,45.57,45.57,0,0,1-11.2,7.44c-2,1-2.26,1.29-2.32,1.59a.47.47,0,0,0,.08.37c.23.31.72.44,2.64.25a39.51,39.51,0,0,0,14.41-5.66c1.63-1.07,2.5-.54,3,0a28.19,28.19,0,0,0,11.67,6.48,6.36,6.36,0,0,0,5.58-.72.48.48,0,0,0,.11-.1c1.49-1.89,1.14-4-1-6.15a4.72,4.72,0,0,1-.51-3.56,17.74,17.74,0,0,1,.33-2.6A18.53,18.53,0,0,0,60,27.59a.47.47,0,0,0-.19-.37,1.49,1.49,0,0,0-1.42-.34,1.76,1.76,0,0,0-1,1.41,47.86,47.86,0,0,1-2.14,4.81c-1,1.06-2,1.45-2.73,1.19a24.64,24.64,0,0,1-2.85-1.68,2.58,2.58,0,0,1-1.15-1.55,1.21,1.21,0,0,1,.36-.91c1.69-2,3.22-4,4.55-5.82,1.17-1.7,1.8-2,2.17-2.09.78-.28,1.19-.56,1.34-.93a.46.46,0,0,0,0-.19C56.9,20,55.67,19,53.1,18a22.73,22.73,0,0,0-2.74-1,2.68,2.68,0,0,0-3.48,1.76,34.4,34.4,0,0,1-2.68,5.9c-.62,1-1,1-1,1h0c-.1,0-.24-.14-.37-.36A30.72,30.72,0,0,1,39.66,16a1.81,1.81,0,0,1,.1-1.36c0-.05.18-.21.64-.21h18c2,0,2.54-.24,2.78-.61a.48.48,0,0,0,.06-.13c.12-.41-.07-1-1.36-2.83a18.61,18.61,0,0,0-4.07-3.57,3.54,3.54,0,0,0-4.34.84,14.56,14.56,0,0,0-2,2.7,1.86,1.86,0,0,1-2.27.89l-.14,0H40.14c-.54,0-1.11-.15-1.2-1.32a17.09,17.09,0,0,1-.13-2.93,2.71,2.71,0,0,1,.86-2.2c.75-.75,1.07-1.24,1.07-1.66a.47.47,0,0,0,0-.15c-.12-.37-.57-.75-2.43-1.56a27.07,27.07,0,0,0-4.69-1,2.28,2.28,0,0,0-1.83.53,2.45,2.45,0,0,0-.66,1.87h0c0,2.29.16,4.62.33,6.94a1.71,1.71,0,0,1-.26,1.25,1,1,0,0,1-.74.25H13.27a5.76,5.76,0,0,1-2.41-.43c-1.5-.66-3-1.27-4.58-1.82a2.12,2.12,0,0,0-1.93.17,2.3,2.3,0,0,0-.73,1.94c0,7.94-.25,15.53-.86,22.58A32.6,32.6,0,0,1,.53,44.66c-.59,1.65-.77,2.53-.13,2.78a.46.46,0,0,0,.17,0,.47.47,0,0,0,.2,0C5.13,45.29,8.17,41.5,9.79,36.17Z"/><path class="cls-1" d="M91.73,29.12c0,.84.83,1.26,2.46,1.26h11.11c1.63,0,2.46-.47,2.46-1.4,0-1.26-1.9-1.26-2.53-1.26H94.12C92.14,27.72,91.73,28.48,91.73,29.12Z"/><path class="cls-1" d="M138.58,40.22a1.84,1.84,0,0,0-1.32-.27,2.1,2.1,0,0,0,.23-.23.46.46,0,0,0,0-.56,17.89,17.89,0,0,0-7.86-7,.45.45,0,0,0-.46.06,21.57,21.57,0,0,0-4.09,4.69l0,0a1.63,1.63,0,0,1-2.17.92l-.15,0H96.47a19,19,0,0,0-2.71-.34,2.47,2.47,0,0,0-2.13.54,1.68,1.68,0,0,0-.28,1.56c.39,1,1.43,1.45,3.11,1.28l2-.39h37.7a5.08,5.08,0,0,0,2.06,0,6.2,6.2,0,0,0-1.38,1.84l-1,1.38c-1.35,2.76-2.75,2.25-3.22,2.09l-.15,0H88.17a12.73,12.73,0,0,0-2.56-.27h0a2.52,2.52,0,0,0-2.24.56,1.62,1.62,0,0,0-.23,1.52c.27.74,1,1.56,3.1,1.23l2.06-.33h16.36a.9.9,0,0,1,.7.2,1,1,0,0,1,0,.79,23.87,23.87,0,0,1-2.67,5.68,3.74,3.74,0,0,1-3,2c-3.23,0-6.73-.07-10.4-.33a.41.41,0,0,0-.36.13c-.26.26-.46.76-.2,2.73a31.84,31.84,0,0,0,.93,4A2.61,2.61,0,0,0,91.36,66a1.39,1.39,0,0,0,1.5-1,5.06,5.06,0,0,1,2.66-.76c12-1.5,23.39-3.36,33.82-5.53a2,2,0,0,1,2.32,1.1l1.44,3.94a5.23,5.23,0,0,0,3.3,2.77,3.35,3.35,0,0,0,.62.06,5.24,5.24,0,0,0,3.16-1.31,5.69,5.69,0,0,0,1-5.27,10.7,10.7,0,0,0-4-5.44A19.73,19.73,0,0,0,129,51a7.43,7.43,0,0,0-4-.26.47.47,0,0,0-.28.25,1.22,1.22,0,0,0,0,1,1.69,1.69,0,0,0,1.13.85,6.56,6.56,0,0,1,2,1.55c.85,1,.75,1.31.75,1.31s-.07.09-.44.12c-6.83.66-14,1.06-21.37,1.2h-.11a6.56,6.56,0,0,1,1.07-1,36.76,36.76,0,0,0,5.73-5.8,3.75,3.75,0,0,1,2.76-1.81H143c1.67,0,2.48-.25,2.72-.92,0-.3,0-.77-1.59-2.79A28.94,28.94,0,0,0,138.58,40.22Z"/><path class="cls-1" d="M144.52,14.17c-1.33-.89-2.69-1.72-3.95-2.43a4.08,4.08,0,0,0-3.09-1.16,4.24,4.24,0,0,0-2.8,1.91,4.26,4.26,0,0,1-2.59.87H119.32c-.8,0-1.13-.35-1.13-1.2V9.7c0-.8.35-1.13,1.2-1.13H138c1.68.31,2.79,0,3.29-1a.46.46,0,0,0,0-.41c-.61-1.37-2.51-3.29-5.73-5.84A3.17,3.17,0,0,0,133.15,0a2.26,2.26,0,0,0-1.69,1q-1.67,2-3.11,4.06c-.25.47-.74,1.05-2.38.75H93.9l-2.54-.27a2.49,2.49,0,0,0-2.17.55A1.63,1.63,0,0,0,89,7.67c.27.74,1,1.56,3.1,1.23l2.06-.33h14.56c.8,0,1.13.35,1.13,1.2v2.46c0,.8-.35,1.13-1.2,1.13H93.7L93,13.29c-.83-.05-1.85-.25-2-.86a3.77,3.77,0,0,0-.72-1.66.46.46,0,0,0-.24-.13c-.54-.12-.94.44-1.66,2.36a10.24,10.24,0,0,1-5.1,5.6l-.11.09a4.83,4.83,0,0,0-1.45,5.06,3.38,3.38,0,0,0,1.7,2.19c2,1.07,4.1.69,6.11-1.13a.47.47,0,0,0,.09-.11,14.5,14.5,0,0,0,1.92-7.28c0-.55.16-1.13,1.32-1.27L93.86,16h14.83c.8,0,1.13.35,1.13,1.2V28.37c-.49,2.71.77,3.94,2,4.52a8.87,8.87,0,0,0,2.28.34,4,4,0,0,0,4.06-2.74.46.46,0,0,0,0-.17V17.15c0-.8.35-1.13,1.2-1.13h14.3a1.1,1.1,0,0,1,.82.25,1.06,1.06,0,0,1,.19.8l-.45,2.53c-.5,1.5-1.28,1.68-1.82,1.68h-9.77c-1.63,0-2.46.47-2.46,1.4S121,24,122.71,24h9.51a6,6,0,0,0,3.08-.59A68.26,68.26,0,0,0,142,19.24c1.55-1.28,2.16-1.39,2.39-1.36a1.88,1.88,0,0,0,2-1.36C146.44,15.64,145.82,14.87,144.52,14.17Z"/><path class="cls-1" d="M105,23.2c1.63,0,2.46-.47,2.46-1.4,0-1.26-1.9-1.26-2.53-1.26h-10c-2,0-2.39.76-2.39,1.4,0,1.26,1.9,1.26,2.53,1.26Z"/><path class="cls-1" d="M133.49,30.91c1.63,0,2.46-.47,2.46-1.4,0-1.26-1.9-1.26-2.53-1.26H122.32c-2,0-2.4.76-2.4,1.4,0,1.26,1.9,1.26,2.53,1.26Z"/><path class="cls-1" d="M228.89,58.17a.47.47,0,0,0-.1-.22c-.18-.22-.62-.53-2.56-1.26a30.54,30.54,0,0,1-7.84-5.09c-1.19-1.19-1.57-2.19-1.17-3.08A77.73,77.73,0,0,0,223,22.91c.14-1.4.79-1.58,1.33-1.58h1c2.08,0,2.63-.33,2.88-.63a.47.47,0,0,0,.08-.47c-.7-1.78-2.45-3.73-5.29-5.94a3,3,0,0,0-2.51-1.13,2.9,2.9,0,0,0-2,1.83l-1.8,2.2a3.16,3.16,0,0,1-2.49,1.42h-4.12c-.33,0-.57-.06-.65-.17s-.05-.42.08-.79a98.28,98.28,0,0,0,3.49-11.23c1.24-.68,1.83-1.33,1.84-2s-.37-1.1-1.15-1.54l-.12,0a21.77,21.77,0,0,0-8-.88.47.47,0,0,0-.4.43c-.22,3-.53,6.09-.93,9.08a3.74,3.74,0,0,1-.21.89A2.42,2.42,0,0,1,204,12c-1.27-2-2.33-2.9-3.37-2.84a1.69,1.69,0,0,0-1,.47,1.09,1.09,0,0,0,.08-.68c0-.2-.1-.42-2.25-2.14A18.29,18.29,0,0,0,193.94,5a3.56,3.56,0,0,0-3.77.62,3.12,3.12,0,0,1-2.63,1.09c-1.46,0-1.46-.63-1.46-.93,0-.49.08-1.11.4-1.31,1.17-.55,1.65-1.19,1.41-2a2.75,2.75,0,0,0-2.49-1.43,22.21,22.21,0,0,0-4.67-.68A2.22,2.22,0,0,0,179,.9a2.46,2.46,0,0,0-.66,1.88V5.58c0,.56-.2,1.13-1.66,1.13a5.17,5.17,0,0,1-2.44-.35,24.94,24.94,0,0,0-4.62-1.9,2.2,2.2,0,0,0-1.95.22,2.19,2.19,0,0,0-.69,1.83V12a1.14,1.14,0,0,1-.26.85,1.25,1.25,0,0,1-.93.22,2.77,2.77,0,0,1-1-.07,2.15,2.15,0,0,0-1.9.53,1.51,1.51,0,0,0-.24,1.39c.23.82.94,1.72,2.92,1.4a1.57,1.57,0,0,1,1.13.28,1,1,0,0,1,.25.78v4.94a3.09,3.09,0,0,0,.34,2.78,2,2,0,0,0,.39.37,1.55,1.55,0,0,0-.32.19,2.19,2.19,0,0,0-.7,1.83V37.86a3.32,3.32,0,0,0,.41,3.07,3.46,3.46,0,0,0,3.12.77c2.41-.1,3.79-1,4.09-2.7,0-.15.12-.62,1.34-.62h13.3c1,0,1.13.42,1.13.88a2.77,2.77,0,0,0,.81,2.11,2.42,2.42,0,0,0,1.91.48c.32.05.43.14.45.18s0,.25-.24.63a.47.47,0,0,0-.05.12A1.58,1.58,0,0,1,190.67,44l-.13,0h-7.38a2.37,2.37,0,0,1-.66-.07l0,0a2.18,2.18,0,0,1,1.09-.73c.84-.37,1.29-.81,1.36-1.32a1.4,1.4,0,0,0-.59-1.26A7.45,7.45,0,0,0,181,39.37l-2.34-.54c-1.47-.1-2.65.82-3.39,2.75l-.24.62c-.63,1.18-1.36,1.75-2.27,1.75a37,37,0,0,1-7.8-.33c-2-.14-2.39,0-2.58.39a.47.47,0,0,0,0,.31l.34,1.57c.3,1,1.32,1.32,3.06,1a30.75,30.75,0,0,1,6.49-.32c.31,0,.41.07.43.09s.1.23-.37,1a50.87,50.87,0,0,1-4.66,7.76,3.18,3.18,0,0,0-1,2.67,2.63,2.63,0,0,0,1.65,1.72c2.79,1.06,5,.48,6.48-1.72,1-1.55,1.77-1.47,2.31-1.27l.89.32c.44.2.69.43.71.62s0,.48-.84,1.1a42.36,42.36,0,0,1-13.15,5.92.47.47,0,0,0-.19.1.62.62,0,0,0-.22.68c.14.4.59.63,2.68.73a36.36,36.36,0,0,0,16-5,2.78,2.78,0,0,1,3.1-.21,31.59,31.59,0,0,1,3.19,2.34c1.88,1.75,3.42,2.44,4.77,2.08,1.19-.31,2.1-1.46,2.73-3.51.24-2.84-1.5-4.93-5.17-6.2-.52-.17-.85-.39-.92-.62s.08-.57.4-1a21.72,21.72,0,0,0,3.2-6c.42-1.14,1-1.69,1.89-1.69h3.52c1.87,0,2.34-.13,2.57-.26a.46.46,0,0,0,.17-.17,1.93,1.93,0,0,0-.29-2.36,28.53,28.53,0,0,0-3.06-3.6,3.47,3.47,0,0,1-1.18-2.73c0-1.83,0-3.62.12-5.32a2.06,2.06,0,0,1,.52-.36l.45-.21c-.5,1.31-.43,1.64-.29,1.88a.46.46,0,0,0,.16.16c.48.29,1,0,3.13-2.5L203,29.79a4.49,4.49,0,0,1,.7-.77.9.9,0,0,1,.13.36A110.23,110.23,0,0,0,208,48.16a3.72,3.72,0,0,1-.1,3.21,37,37,0,0,1-11,12.38c-.4.2-1.62.81-1.52,1.79a.47.47,0,0,0,.06.19c.28.46,1,.48,2.7.08,4.23-1,8.34-3.52,12.2-7.52.83-.89,1.3-1,1.5-1s.29,0,.55.47a27.32,27.32,0,0,0,8,8.53.48.48,0,0,0,.27.09h.09c.32-.06.65-.3,2-2.79a10.77,10.77,0,0,1,3.84-3.75C228.39,59.18,229,58.74,228.89,58.17ZM215,22.56h0a87.44,87.44,0,0,1-3.1,19.36,1.64,1.64,0,0,1-.35.7s-.23-.08-.58-.69a57.64,57.64,0,0,1-4.82-15.11.46.46,0,0,0,0-.12c-.45-.93-.11-2.13,1.05-3.63.67-1.18,1.43-1.76,2.32-1.76h4.59a1,1,0,0,1,.73.23A1.41,1.41,0,0,1,215,22.56Zm-28.93,8.95c0-.8.35-1.13,1.2-1.13h1.66c.56,0,1.13.17,1.13,1.4V34.5c0,.8-.35,1.13-1.2,1.13h-1.66c-.81,0-1.13-.35-1.13-1.2Zm3.73-19.28c0,.8-.35,1.13-1.2,1.13h-1.4c-.81,0-1.13-.35-1.13-1.2V10.5c0-.56.2-1.13,1.65-1.13l2,.06a9.28,9.28,0,0,1,.07,1.4Zm-3.73,4.92c0-.8.35-1.13,1.2-1.13h1.46c.55,0,1.06.15,1.06,1.26v1.8c0,.8-.35,1.13-1.2,1.13h-1.4c-.81,0-1.13-.35-1.13-1.2Zm12.74-6.41-.52.65a6.67,6.67,0,0,1-.8.82,1,1,0,0,1,.62-1.36,4.41,4.41,0,0,0,.94-.57A4.33,4.33,0,0,0,198.81,10.74Zm-1.17,17.13A18.13,18.13,0,0,0,194.2,26a4.75,4.75,0,0,0-1.49-.26,3.15,3.15,0,0,0-2.24.9,4.06,4.06,0,0,1-2.94,1.07c-1.29,0-1.46-.61-1.46-1.2V24.06c0-.8.35-1.13,1.2-1.13h1.33c1.1,0,1.27.23,1.27.23h0c.4,2,1.53,2.35,2.33,2.3,2.46.29,4.19-.41,5.18-2.09a.49.49,0,0,0,.06-.23l.07-6c0-.8.35-1.13,1.2-1.13h3.72a1,1,0,0,1,.8.24,1.05,1.05,0,0,1,.14.82,55.07,55.07,0,0,1-3.63,12.58A14.63,14.63,0,0,0,197.64,27.87ZM178.3,19.08c0,.8-.35,1.13-1.2,1.13h-1.33c-.8,0-1.13-.35-1.13-1.2V17.15c0-.8.35-1.13,1.2-1.13h1.4c.55,0,1.06.15,1.06,1.26Zm0-6.85c0,.8-.35,1.13-1.2,1.13h-1.33c-.8,0-1.13-.35-1.13-1.2v-1.4a.51.51,0,0,0,0-.12c-.1-.39-.17-.9.07-1.16a1.25,1.25,0,0,1,.94-.26,6.4,6.4,0,0,1,1.2.13c1.29,0,1.46.64,1.46,1.26Zm-3.8,11.21c.1-.42.78-.5,1.34-.5h1.33c.8,0,1.13.35,1.13,1.2v2.46c0,.34,0,1.13-1.8,1.13a5.22,5.22,0,0,1-2.59-.35A33.89,33.89,0,0,0,170.78,26C172.87,25.75,174.12,24.89,174.49,23.44Zm-.12,8.34a4.57,4.57,0,0,1,.12-1.31,16.47,16.47,0,0,1,2.21-.08c1.41,0,1.6.64,1.6,1.26V34.5c0,.8-.35,1.13-1.2,1.13h-1.6c-.8,0-1.13-.35-1.13-1.2Zm11.79,16a25.46,25.46,0,0,1-2.34,4.93,2.11,2.11,0,0,1-2.29.92L179,53.33c-.3,0-.69-.14-.8-.36s0-.7.35-1.29l1.73-3.32c.63-1.18,1.36-1.75,2.25-1.75h3a.82.82,0,0,1,.62.19A1.21,1.21,0,0,1,186.16,47.74Z"/><path class="cls-1" d="M274.07,52.56a4.21,4.21,0,0,0,2.41,2.75,2.71,2.71,0,0,0,.83.13,4.79,4.79,0,0,0,2.58-.92l.1-.09a9.45,9.45,0,0,0,2.23-7.63c-1-6-4.13-13.19-9.25-21.33-1.56-2.31-2-2.46-2.34-2.42a.58.58,0,0,0-.48.39.46.46,0,0,0,0,.23,13.46,13.46,0,0,0,.69,2.68A59,59,0,0,1,274,49.67,5.84,5.84,0,0,0,274.07,52.56Z"/><path class="cls-1" d="M264.65,16.81a.47.47,0,0,0,0,.3l.34,1.56c.24.83,1,1.25,2.21,1.25a7.11,7.11,0,0,0,.84-.05l2.11-.39H304c2,0,2.52-.29,2.75-.57a.44.44,0,0,0,.09-.15c.11-.33.08-.8-1.5-2.86a26.75,26.75,0,0,0-3.67-3.34c-1.18-1.18-2.16-1.71-3.06-1.61a2,2,0,0,0-1.48,1c-.76.89-1.46,1.8-2.09,2.69a11.15,11.15,0,0,1-1.73,2.1,11.53,11.53,0,0,1-2.21.09c-1.46,0-1.66-.61-1.66-1.2V8a8.76,8.76,0,0,1,.08-1.49,2.59,2.59,0,0,0,1.67-1.24,1.7,1.7,0,0,0-.06-1.46.45.45,0,0,0-.17-.2c-1.46-.94-3.9-1.48-7.49-1.67a2.31,2.31,0,0,0-1.79.59A2.54,2.54,0,0,0,281,4.45V15.68c0,.8-.35,1.13-1.2,1.13H270a22.86,22.86,0,0,0-2.76-.34C265.27,16.29,264.83,16.43,264.65,16.81Z"/><path class="cls-1" d="M262.8,23.59c-.17-.67-.87-1.14-2.11-1.46a1.25,1.25,0,0,1-.6-1.92q2.58-5.35,5-10.69c.31-1.61,1.08-2.47,2.33-2.62l.12,0a2.67,2.67,0,0,0,1.12-.74.49.49,0,0,0,.08-.14,1.75,1.75,0,0,0-.06-1.44,3,3,0,0,0-2-1.32,21.32,21.32,0,0,0-6-2,2.39,2.39,0,0,0-3,2.11h0a67.07,67.07,0,0,1-11.68,30.5c-1.57,2-1.59,2.46-1.46,2.78a.47.47,0,0,0,.1.15c.35.35.89.3,2.95-1a44.77,44.77,0,0,0,4.43-4,3.35,3.35,0,0,1,.85-.68,1.6,1.6,0,0,1,0,.29V61.5a9.94,9.94,0,0,0,.18,2.66,3.1,3.1,0,0,0,3.07,2.13,7.28,7.28,0,0,0,1.17.1,3.76,3.76,0,0,0,3.87-2.89.48.48,0,0,0,0-.13V27.59a3.13,3.13,0,0,1,.92-2.32A1.77,1.77,0,0,0,262.8,23.59Z"/><path class="cls-1" d="M309,59.82A23.8,23.8,0,0,0,301.11,53l-.15,0c-.39,0-.94.09-2.89,2.44l-1,1.37a5.31,5.31,0,0,1-1.65,2,49.13,49.13,0,0,1-5,.13c-.42,0-.51-.1-.51-.1s-.07-.19.3-.78a46.9,46.9,0,0,0,4-7.72,120.18,120.18,0,0,0,6.47-20.89c.39-1.73.78-2,.85-2,.85-.34,1.3-.77,1.37-1.3s-.23-1-1-1.62a31.73,31.73,0,0,0-7-1.57,2.37,2.37,0,0,0-1.89.49,2.45,2.45,0,0,0-.68,1.89,164.37,164.37,0,0,1-4.64,31.93c-.45,1.49-1.21,1.66-1.75,1.66h-18a18.52,18.52,0,0,0-2.71-.34,2.47,2.47,0,0,0-2.17.55,1.62,1.62,0,0,0-.24,1.52c.3.89,1.11,1.34,2.46,1.34l.66,0,2-.39H305.8c2.34.46,3.07-.45,3.27-1.28A.46.46,0,0,0,309,59.82Z"/><path class="cls-1" d="M359.61,11.29a9.48,9.48,0,0,1,2.86,5.07c.41,2.32,1.24,3.84,2.49,4.54a3.55,3.55,0,0,0,1.76.44,6.28,6.28,0,0,0,2.3-.5l.11-.06a4.93,4.93,0,0,0,2.18-4.25c-.14-3-2.16-5.37-6-7a15.86,15.86,0,0,0-5-1.24c-1.74-.05-2.49.15-2.66.74a.46.46,0,0,0,0,.21C357.67,9.54,357.87,9.94,359.61,11.29Z"/><path class="cls-1" d="M363.86,26.63a24,24,0,0,0-4.63-1.56c-.75-.15-2.51-.49-2.74.55a.47.47,0,0,0,0,.1c0,.3.16.68,2.08,2.53a11.07,11.07,0,0,1,2,4.61c.18,2.65.92,4.45,2.19,5.36a3.93,3.93,0,0,0,2.34.7,6.91,6.91,0,0,0,1.77-.25l.12,0a4.17,4.17,0,0,0,2.2-3.2C370.14,32.1,368.34,29.15,363.86,26.63Z"/><path class="cls-1" d="M351.49,43.34l.11.08a4.38,4.38,0,0,0,3.59.65,4.32,4.32,0,0,0,2.41-2.71c.85-2.84-.36-5.67-3.62-8.42a22.9,22.9,0,0,0-4.78-2.79c-1.14-.42-1.69-1-1.69-1.89V25.66c0-.81.35-1.13,1.2-1.13h6.52c2,0,2.5-.29,2.73-.63s.13-.93-1-3c-1.92-2.38-3.34-3.79-4.33-4.31a.46.46,0,0,0-.16,0,1.68,1.68,0,0,0-1.93,1,32,32,0,0,0-1.8,2.69,3.16,3.16,0,0,1-1.17,1.57,7.15,7.15,0,0,1-.07-1.24V11.16a1.72,1.72,0,0,1,1.27-1.75,20.59,20.59,0,0,1,6.1-1.32,1.7,1.7,0,0,0,2-1.16.5.5,0,0,0,0-.16,2.86,2.86,0,0,0-1.73-2.44,30.94,30.94,0,0,0-5.34-3c-.65-.52-1.72-.75-3.22.92a59.63,59.63,0,0,1-15.75,8.07c-1.72.39-2.71.89-3.09,1.55a.45.45,0,0,0-.05.32,1.25,1.25,0,0,0,.62.84.67.67,0,0,0,.26.07,50.83,50.83,0,0,0,9-1.14,1.61,1.61,0,0,1,1.23.13.86.86,0,0,1,.22.68v8c0,.8-.35,1.13-1.22,1.13a34.07,34.07,0,0,1-7.53-.33,2.52,2.52,0,0,0-2.17.58,1.45,1.45,0,0,0-.25,1.31c.16.73.78,1.56,2.8,1.42a34.79,34.79,0,0,1,6.83-.33,1.06,1.06,0,0,1,.77.23,1.1,1.1,0,0,1,.1.81A89.59,89.59,0,0,1,329.26,51c-.88,2-.85,2.64-.43,3s1.09.14,3.36-1.44a23,23,0,0,0,6.94-10.84v20c-.13,1.81.24,3.12,1.09,3.89a3.53,3.53,0,0,0,2.45.82,6.73,6.73,0,0,0,1.11-.1,3.47,3.47,0,0,0,3.72-2.86V34.17c0-.07,0-.13,0-.17a4.15,4.15,0,0,1,.65.65,15.24,15.24,0,0,1,1.68,5.12A5.42,5.42,0,0,0,351.49,43.34Z"/><path class="cls-1" d="M388.88,35.22a25.69,25.69,0,0,0-4-1.58,2.48,2.48,0,0,0-2.08-.34,2.87,2.87,0,0,0-1.6,1.82,3.88,3.88,0,0,1-.32.42,4.46,4.46,0,0,1,0-.56V8.24A5.73,5.73,0,0,1,381,6.68a3.39,3.39,0,0,0,2.09-1.59.49.49,0,0,0,0-.15,2.25,2.25,0,0,0-.57-1.75,3.91,3.91,0,0,0-2.93-.93h-.06A40.58,40.58,0,0,0,375,1.59a2.18,2.18,0,0,0-1.74.52,2.5,2.5,0,0,0-.62,1.95v35c0,.54-.16,1.19-1.38,1.48-9.62,2.38-16.56,3.92-20.65,4.58-1,.19-1.6.53-1.81,1a1.39,1.39,0,0,0,.26,1.35c.63.86,1.8,1,3.46.3a81.23,81.23,0,0,1,8.72-2.24l10-2.26a1.57,1.57,0,0,1,1.22.08.82.82,0,0,1,.22.66V62.13c-.14,1.77.25,3.05,1.13,3.81a3.71,3.71,0,0,0,2.49.78,9.74,9.74,0,0,0,2.27-.31l.11,0a3.87,3.87,0,0,0,2.24-4.66V42.48c0-.53.19-1.3,1.77-1.74l6.56-1.58c1.92-.07,2.42-.87,2.51-1.54a.43.43,0,0,0,0-.12C391.68,37.13,391.42,36.62,388.88,35.22Z"/><path class="cls-1" d="M470.74,57.05a42.51,42.51,0,0,1-12.63-4.87c-.43-.24-.95-.62-1-1a1.32,1.32,0,0,1,.47-1A37.49,37.49,0,0,0,466,35.67a2.06,2.06,0,0,1,1.79-1.54,2,2,0,0,0,1.34-1.34c.13-.66-.19-1.38-1-2.25a26.72,26.72,0,0,0-4.88-2.95,3.08,3.08,0,0,0-2.36-.61,3.57,3.57,0,0,0-2.17,1.68,4.47,4.47,0,0,1-3.1,1.11c-1.35,0-1.53-.61-1.53-1.2V18.48c0-.81.35-1.13,1.2-1.13h14.16q2.44.37,3.2-.88a.46.46,0,0,0,0-.42c-.75-1.78-2.52-3.67-5.35-5.74a2.46,2.46,0,0,0-4.48.77L461,13.26a3.26,3.26,0,0,1-2.57,1.36h-3.26c-.8,0-1.13-.35-1.13-1.2V6.57a1.91,1.91,0,0,1,.79-1.81,2.35,2.35,0,0,0,1.2-1.5,1.14,1.14,0,0,0-.32-.92l-.11-.09C454,1.32,451.52.77,448,.59a2.11,2.11,0,0,0-1.58.53,2.86,2.86,0,0,0-.7,2.13V13.49c0,.8-.35,1.13-1.2,1.13h-8.84a3.38,3.38,0,0,1-2.42-.95c-1.09-1-1.56-1.14-1.84-1.18a.44.44,0,0,0-.28,0c-.25.12-.68.49-2.06,2.33-1.19,2.28-1.94,2.52-2.27,2.44,0,0-.18-.19-.18-1.22V6.44c0-.59.09-1.32.56-1.52.87-.48,1.33-1,1.43-1.54a1.38,1.38,0,0,0-.37-1.17.51.51,0,0,0-.12-.1c-1.4-.79-3.8-1.29-7.33-1.52a2.18,2.18,0,0,0-1.69.56,2.9,2.9,0,0,0-.72,2.16V16.15c0,.8-.35,1.13-1.22,1.13a26.34,26.34,0,0,1-5.27-.27,2.59,2.59,0,0,0-2.2.6,1.6,1.6,0,0,0-.27,1.45c.2.72.89,1.52,3.07,1.26a18.87,18.87,0,0,1,4.76-.32c.81,0,1.13.35,1.13,1.2v9.64a1.63,1.63,0,0,1-1.27,1.68c-1.71.53-3.37,1-4.95,1.32a3.14,3.14,0,0,0-2.09,1.23,2.57,2.57,0,0,0-.25,2A55,55,0,0,0,412,43.32a.46.46,0,0,0,.09.14c.94,1,1.66,1.38,2.29,1.18.78-.25.92-1.29,1-1.65A3.5,3.5,0,0,1,417,40.81c1-.65,1.25-.55,1.25-.55s.08.11.08.43v14.9a10.62,10.62,0,0,1-.09,1.75c-.77.7-2.47.93-4.94.64-1.75-.1-2.62.09-2.91.66a.45.45,0,0,0,0,.21c0,.43.36.87,2.23,1.83a6.22,6.22,0,0,1,3.12,3c.5,2.26,1.87,2.76,3,2.76h.13c4.13-.56,6.72-2.64,7.7-6.19a.47.47,0,0,0,0-.12V35.3a3.34,3.34,0,0,1,1.42-2.56q3.06-2.48,6.28-4.88c1.62-1.56,2-2.25,1.64-2.75a.46.46,0,0,0-.19-.14c-.3-.12-.73-.11-3.15,1.14A50.7,50.7,0,0,0,428,28.44c-.95.52-1.22.39-1.25.37s-.13-.19-.13-.5V21.14c0-.8.35-1.13,1.2-1.13h6c1.91,0,2.43-.22,2.69-.44a.47.47,0,0,0,.09-.11,1.67,1.67,0,0,0-.23-2.05,3.64,3.64,0,0,1,.77-.06h7.45c.8,0,1.13.35,1.13,1.2V28.65c0,.81-.35,1.13-1.2,1.13h-6.9a15.77,15.77,0,0,0-2.79-.27h0a2.3,2.3,0,0,0-2,.62,1.5,1.5,0,0,0-.17,1.4c.27.74,1,1.55,3,1.28a4.13,4.13,0,0,1,1.21-.18c1.44,0,1.65.58,1.73,1.16a65.61,65.61,0,0,0,6.8,17.2,1.72,1.72,0,0,1-.2,2.63,54.44,54.44,0,0,1-17.1,10.16c-2,.87-2.27,1.18-2.38,1.45a.46.46,0,0,0,.1.5c.25.25.75.46,2.73.33A50.23,50.23,0,0,0,448.7,57.9c.67-.45,1.74-.87,3.43.7a49.73,49.73,0,0,0,10.78,6.93c2.07.75,2.64.73,2.95.43a.45.45,0,0,0,.11-.18,9.88,9.88,0,0,1,5.13-5.7c2.2-.94,2.49-1.31,2.59-1.61a.45.45,0,0,0,0-.15C473.71,57.78,473.25,57.44,470.74,57.05ZM457.63,33.74a34.49,34.49,0,0,1-5.57,12.12,1.79,1.79,0,0,1-1.16.83,1.71,1.71,0,0,1-1.26-.55,33.89,33.89,0,0,1-8.07-12.25c-.27-.82-.15-1.11-.09-1.2s.37-.18.58-.18h14.76a.91.91,0,0,1,.71.22A1.3,1.3,0,0,1,457.63,33.74Z"/></g></g></svg>